<svg id="Layer_1" data-name="Layer 1" xmlns="http://www.w3.org/2000/svg" viewBox="0 0 800 600"><defs><style>.cls-1{fill:#fff;}.cls-2{fill:#f9e8d4;}.cls-3{fill:#eee;}.cls-10,.cls-4{fill:#282d3c;}.cls-5,.cls-8{fill:#584f49;}.cls-6{fill:none;stroke:#e0d0be;}.cls-10,.cls-6,.cls-9{stroke-miterlimit:10;}.cls-7{fill:#798ea4;}.cls-8{opacity:0.6;}.cls-9{fill:#e8a798;stroke:#e8a798;}.cls-10{stroke:#fff;}</style></defs><title>blueslidepark</title><rect class="cls-1" width="800" height="600"/><polygon class="cls-2" points="416.3 163.25 399.02 183 382.97 163.25 390.38 163.25 390.38 154.61 399.63 154.61 408.89 154.61 408.89 163.25 416.3 163.25"/><rect class="cls-2" x="340.83" y="312.92" width="16.71" height="27.71" rx="4"/><rect class="cls-2" x="442.47" y="312.92" width="16.71" height="27.71" rx="4"/><path class="cls-3" d="M459,285.43V179.16a7,7,0,0,0-7-6.88h-2.77a7,7,0,0,0-7,6.88V309.42a6.59,6.59,0,0,0,.49,2.47v4.4h16.79V285.43Z"/><path class="cls-3" d="M357.33,285.43V179.16a7,7,0,0,0-7-6.88h-2.77a7,7,0,0,0-7,6.88V309.42a6.59,6.59,0,0,0,.49,2.47v4.4h16.79V285.43Z"/><polygon class="cls-3" points="399.06 301.5 416.75 324.97 429.92 291.63 438.41 243.98 438.41 169.16 416.75 162.99 416.75 162.99 399.06 183 399.06 301.5"/><polygon class="cls-3" points="399.06 301.5 383.42 324.97 368.2 291.63 361.75 243.98 361.75 169.16 383.42 162.99 383.42 162.99 399.06 183 399.06 301.5"/><polygon class="cls-3" points="403.82 167.27 412.27 158.27 417.67 163.34 405.84 175.94 403.82 167.27"/><polygon class="cls-3" points="395.45 167.27 387 158.27 381.6 163.34 393.43 175.94 395.45 167.27"/><rect class="cls-4" x="388.62" y="160.03" width="5.19" height="34.12" transform="translate(-29.42 263.57) rotate(-35.97)"/><rect class="cls-4" x="406.3" y="160.03" width="5.19" height="34.12" transform="translate(635.79 560.59) rotate(-144.03)"/><polygon class="cls-4" points="404.77 195.53 395.92 195.53 391.7 183.51 408.98 183.51 404.77 195.53"/><polygon class="cls-4" points="407.75 231.38 400.34 239.29 392.94 231.38 394.92 212.34 395.9 193.29 400.34 193.29 405.77 193.29 405.77 212.34 407.75 231.38"/><path class="cls-2" d="M426.94,117.78c0,11.81-3.11,22.51-8.15,30.25s-12,12.53-19.68,12.53-14.64-4.79-19.68-12.53-8.15-18.44-8.15-30.25-1.57-22.51,3.47-30.25S391.42,75,399.11,75s19.32,4.79,24.36,12.53S426.94,106,426.94,117.78Z"/><path class="cls-2" d="M431,124.52a11.34,11.34,0,0,1-2.76,7.54,8.72,8.72,0,0,1-13.37,0,11.67,11.67,0,0,1,0-15.07,8.93,8.93,0,0,1,6.69-3.12c2.6,0,8.09,1.19,9.8,3.12S431,121.58,431,124.52Z"/><path class="cls-2" d="M367.23,124.52a11.35,11.35,0,0,0,2.77,7.54,8.71,8.71,0,0,0,13.36,0,11.63,11.63,0,0,0,0-15.07,8.91,8.91,0,0,0-6.68-3.12c-2.61,0-8.09,1.19-9.8,3.12S367.23,121.58,367.23,124.52Z"/><path class="cls-5" d="M429.88,95.4a100.11,100.11,0,0,1-.06,10.62c-.37,3.92-1.43,7.61-4.2,9.3-5-9.86.26-18-4.65-22.42s-20-6.4-24.25-6.4-17.15,2.18-20.47,6.79,3,12.88-4.39,22.57c-2.77-1.68-3.55-5.51-3.64-9.57s.52-8.32.52-10.89a12.58,12.58,0,0,1,2.4-7.24,21.36,21.36,0,0,1,6.55-5.91,58.3,58.3,0,0,1,9.72-4.83,31.93,31.93,0,0,1,23.8,0,58.18,58.18,0,0,1,9.71,4.83,21.36,21.36,0,0,1,6.55,5.91A12.59,12.59,0,0,1,429.88,95.4Z"/><line class="cls-6" x1="389.31" y1="98.26" x2="408.91" y2="98.26"/><line class="cls-6" x1="391.85" y1="102.52" x2="406.66" y2="102.52"/><circle class="cls-7" cx="387.88" cy="121.48" r="2.88"/><circle class="cls-7" cx="410.34" cy="121.48" r="2.88"/><path class="cls-8" d="M383.48,115.15a4.8,4.8,0,0,1,.91-1.31,4.93,4.93,0,0,1,7,0,4.84,4.84,0,0,1,.92,1.31h1.35a6.11,6.11,0,0,0-5.76-4,6.14,6.14,0,0,0-4.36,1.81,6.07,6.07,0,0,0-1.39,2.18Z"/><path class="cls-8" d="M405.93,115.15a5,5,0,0,1,.91-1.31,4.94,4.94,0,0,1,7,0,5,5,0,0,1,.91,1.31h1.35A6.07,6.07,0,0,0,414.7,113a6.17,6.17,0,0,0-8.73,0,6.07,6.07,0,0,0-1.39,2.18Z"/><rect class="cls-9" x="392.94" y="139.61" width="12.34" height="2.84" rx="1.15"/><path class="cls-8" d="M388.64,152.5c-14.88-7.34-17.25-47.2-17.25-35.22s3.16,22.82,8.27,30.67c4.88,7.51,11.55,12.27,18.94,12.67v0l.51,0,.51,0v0c7.39-.4,14.05-5.16,18.94-12.67,5.11-7.85,8.27-18.69,8.27-30.67s-2.37,27.88-17.25,35.22"/><polygon class="cls-4" points="433.91 511.74 405.62 511.74 405.62 282 430.21 282 433.91 511.74"/><polygon class="cls-4" points="394.09 511.74 365.8 511.74 368.26 282 392.85 282 394.09 511.74"/><polygon class="cls-4" points="430.32 306.31 368.6 306.31 367.37 281.63 429.09 281.63 430.32 306.31"/><path class="cls-10" d="M400.4,525a20.39,20.39,0,0,1,40.77,0"/><path class="cls-10" d="M399.26,525a20.39,20.39,0,0,0-40.77,0"/></svg>