<svg id="Layer_1" data-name="Layer 1" xmlns="http://www.w3.org/2000/svg" viewBox="0 0 800 600"><defs><style>.cls-1{fill:#fff;}.cls-2,.cls-3{fill:orange;}.cls-13,.cls-2{stroke:#a09998;}.cls-13,.cls-2,.cls-7,.cls-9{stroke-miterlimit:10;}.cls-2{stroke-width:0.25px;}.cls-4{fill:#00758f;}.cls-5{fill:#f9e8d4;}.cls-6{fill:#798ea4;}.cls-7{fill:none;stroke:#e0d0be;}.cls-8{fill:#584f49;opacity:0.6;}.cls-9{fill:#e8a798;stroke:#e8a798;}.cls-10,.cls-13{fill:#282d3c;}.cls-11{fill:#eee;}.cls-12{fill:#a09998;}.cls-13{opacity:0.7;}</style></defs><title>circles</title><rect class="cls-1" width="800" height="600"/><path class="cls-2" d="M434.23,108.66c0,7-15.35,12.63-34.29,12.63s-34.29-5.65-34.29-12.63"/><ellipse class="cls-3" cx="399.94" cy="162.81" rx="25.27" ry="9.86"/><polygon class="cls-4" points="394.64 510.02 366.58 510.02 369.03 282.16 393.42 282.16 394.64 510.02"/><polygon class="cls-4" points="433.82 510.02 405.76 510.02 405.76 282.16 430.14 282.16 433.82 510.02"/><rect class="cls-1" x="367.98" y="242.35" width="64.43" height="64.43"/><polygon class="cls-5" points="419.99 168.51 399.2 197.34 379.89 168.51 388.8 168.51 388.8 155.9 399.94 155.9 411.08 155.9 411.08 168.51 419.99 168.51"/><rect class="cls-5" x="342.18" y="302.91" width="16.57" height="27.48" rx="4"/><rect class="cls-5" x="441.77" y="302.91" width="16.57" height="27.48" rx="4"/><path class="cls-3" d="M458.13,285.65V180.24a6.9,6.9,0,0,0-6.95-6.81h-2.74a6.9,6.9,0,0,0-7,6.81v129.2a6.49,6.49,0,0,0,.49,2.45v4.37h16.65V285.65Z"/><path class="cls-3" d="M358.55,285.65V180.24a6.9,6.9,0,0,0-7-6.81h-2.74a6.9,6.9,0,0,0-7,6.81v129.2a6.68,6.68,0,0,0,.48,2.45v4.37H359V285.65Z"/><path class="cls-5" d="M427.55,117.43c0,11.72-3.09,22.32-8.09,30s-11.9,12.43-19.52,12.43-14.52-4.75-19.52-12.43-8.08-18.28-8.08-30-1.56-22.32,3.44-30S392.32,75,399.94,75s19.17,4.75,24.16,12.43S427.55,105.71,427.55,117.43Z"/><path class="cls-5" d="M431.56,124.12a11.22,11.22,0,0,1-2.75,7.47,8.65,8.65,0,0,1-13.25,0,11.52,11.52,0,0,1,0-14.94,8.85,8.85,0,0,1,6.62-3.1c2.59,0,8,1.19,9.73,3.1S431.56,121.2,431.56,124.12Z"/><path class="cls-5" d="M368.33,124.12a11.26,11.26,0,0,0,2.74,7.47,8.66,8.66,0,0,0,13.26,0,11.55,11.55,0,0,0,0-14.94,8.87,8.87,0,0,0-6.63-3.1c-2.59,0-8,1.19-9.72,3.1S368.33,121.2,368.33,124.12Z"/><circle class="cls-6" cx="388.81" cy="121.1" r="2.86"/><circle class="cls-6" cx="411.08" cy="121.1" r="2.86"/><line class="cls-7" x1="390.22" y1="98.07" x2="409.66" y2="98.07"/><line class="cls-7" x1="392.6" y1="102.3" x2="407.29" y2="102.3"/><path class="cls-8" d="M384.44,114.82a4.88,4.88,0,0,1,7.83-1.3,5.15,5.15,0,0,1,.91,1.3h1.33a6.09,6.09,0,0,0-10-2.16,6,6,0,0,0-1.38,2.16Z"/><path class="cls-8" d="M406.71,114.82a4.88,4.88,0,0,1,7.83-1.3,5.15,5.15,0,0,1,.91,1.3h1.33a6,6,0,0,0-1.38-2.16,6.1,6.1,0,0,0-8.65,0,6,6,0,0,0-1.38,2.16Z"/><rect class="cls-9" x="393.82" y="139.08" width="12.24" height="2.82" rx="1.15"/><path class="cls-8" d="M410.42,151c-5.72,6.24-3.59-4.2-9.85-5.44v-.12q-.33,0-.63,0c-.2,0-.41,0-.62,0v.12c-6.26,1.24-4.14,11.68-9.86,5.44-14.91-7.35-17.28-47.27-17.28-35.28s3.17,22.87,8.28,30.73c4.89,7.52,11.57,12.28,19,12.68v0l.51,0,.51,0v0c7.4-.4,14.08-5.16,19-12.68,5.12-7.86,8.28-18.73,8.28-30.73S425.33,143.62,410.42,151Z"/><path class="cls-10" d="M400.76,523.12a20.22,20.22,0,1,1,40.44,0"/><path class="cls-10" d="M399.63,523.12a20.22,20.22,0,1,0-40.43,0"/><polygon class="cls-3" points="399.63 368.67 363.4 372.01 362.79 339.08 362.79 274 362.79 172.58 384.18 164.21 384.18 164.21 402.08 179.09 399.63 368.67"/><path class="cls-11" d="M360.18,518.79a20.18,20.18,0,0,0-1,6.21h40.43a20.18,20.18,0,0,0-1-6.21Z"/><path class="cls-11" d="M401.75,518.79a19.89,19.89,0,0,0-1,6.21H441.2a20.18,20.18,0,0,0-1-6.21Z"/><polygon class="cls-3" points="401.32 368.67 437.56 372.01 438.16 339.08 438.16 274 438.16 172.58 416.77 164.21 416.77 164.21 398.87 179.09 401.32 368.67"/><rect class="cls-2" x="393.82" y="172.21" width="12.24" height="195.88"/><circle class="cls-12" cx="400.23" cy="206.41" r="3.53"/><circle class="cls-12" cx="400.23" cy="239.91" r="3.53"/><circle class="cls-12" cx="399.66" cy="273.4" r="3.53"/><circle class="cls-12" cx="400.23" cy="306.9" r="3.53"/><circle class="cls-12" cx="400.23" cy="340.39" r="3.53"/><polygon class="cls-3" points="394.98 177.2 380.26 174.43 383.63 154.95 403.88 174.43 394.98 177.2"/><polygon class="cls-3" points="404.9 177.2 419.62 174.43 416.25 154.95 396 174.43 404.9 177.2"/><rect class="cls-2" x="410.14" y="193.96" width="24.49" height="24.49"/><rect class="cls-2" x="365.95" y="193.96" width="24.49" height="24.49"/><polygon class="cls-2" points="390.43 203.55 378.19 207.23 365.95 203.55 365.95 201.11 365.95 194.99 378.19 194.99 390.43 194.99 390.43 201.11 390.43 203.55"/><polygon class="cls-2" points="434.63 203.55 422.39 207.23 410.14 203.55 410.14 201.11 410.14 194.99 422.39 194.99 434.63 194.99 434.63 201.11 434.63 203.55"/><polygon class="cls-2" points="429.32 102.15 399.94 102.15 370.56 102.15 374.85 89.9 377.9 77.66 399.94 75.21 421.98 77.66 425.04 89.9 429.32 102.15"/><circle class="cls-13" cx="385.9" cy="121.1" r="11.02"/><circle class="cls-13" cx="413.99" cy="121.1" r="11.02"/><rect class="cls-12" x="396.33" y="114.58" width="7.35" height="2.45"/><path class="cls-6" d="M388.32,169.94c-4.25,3.42-7.47,9.79-5.26,15.2,1.3,3.19,4.6,4.44,6.34,7.25a9.44,9.44,0,0,1,.28,9.37c-1.21,2.18-4.94,5.8-2.1,8.2.74.62,1.8-.43,1.06-1.06-1.62-1.37.69-4,1.56-5.21a10.61,10.61,0,0,0,2-4.68,10.77,10.77,0,0,0-3.09-9.36c-1.48-1.42-3.29-2.51-4.29-4.36a8.37,8.37,0,0,1-.85-4.92,14.41,14.41,0,0,1,5.45-9.37c.75-.61-.32-1.66-1.06-1.06Z"/><path class="cls-6" d="M412.46,171.55c-1,6.34,5,10.45,6.78,16,2.74,8.44-10.9,8.71-10.68,16.45a8,8,0,0,0,2.07,4.6c1.1,1.41,2.79,3.06,2.47,5-.16.94,1.29,1.35,1.44.4.54-3.31-2.32-5.3-3.8-7.88-2.51-4.38,2.68-7.27,5.7-9.31,2.66-1.81,4.94-4.28,4.65-7.71-.25-2.85-2-5.35-3.49-7.66-1.83-2.76-4.24-6-3.7-9.48.15-.94-1.3-1.35-1.44-.4Z"/><path class="cls-2" d="M365.65,109.17c0-3.49,3.84-6.65,10-8.93s14.78-3.7,24.25-3.7,18,1.41,24.25,3.7,10,5.44,10,8.93"/><path class="cls-5" d="M428,109.67c0-2.68-12.44-4.86-27.79-4.86s-27.8,2.18-27.8,4.86"/></svg>