<svg id="Layer_1" data-name="Layer 1" xmlns="http://www.w3.org/2000/svg" viewBox="0 0 800 600"><defs><style>.cls-1{fill:#fff;}.cls-2{fill:#eee;}.cls-11,.cls-3{fill:#282d3c;}.cls-4{fill:none;stroke:#e0d0be;}.cls-10,.cls-11,.cls-4{stroke-miterlimit:10;}.cls-5{fill:#798ea4;}.cls-6{fill:#bebebe;}.cls-7{fill:#f9e8d4;}.cls-8,.cls-9{fill:#584f49;}.cls-9{opacity:0.6;}.cls-10{fill:#e8a798;stroke:#e8a798;}.cls-11{stroke:#fff;}</style></defs><title>goodam</title><rect class="cls-1" width="800" height="600"/><path class="cls-2" d="M434,108.45c0,28.35-13.78,83.62-33.35,83.62S366,136.8,366,108.45s13.5-4.24,33.06-4.24S434,80.11,434,108.45Z"/><polygon class="cls-2" points="404.29 172.16 412.56 163.35 417.84 168.31 406.27 180.64 404.29 172.16"/><polygon class="cls-2" points="396.1 172.16 387.84 163.35 382.55 168.31 394.13 180.64 396.1 172.16"/><polygon class="cls-3" points="429.83 317.98 369.45 317.98 368.24 293.83 428.62 293.83 429.83 317.98"/><line class="cls-4" x1="389.49" y1="102.73" x2="408.67" y2="102.73"/><line class="cls-4" x1="391.98" y1="106.9" x2="406.47" y2="106.9"/><polygon class="cls-5" points="394.52 508.96 366.84 508.96 369.25 284.19 393.31 284.19 394.52 508.96"/><polygon class="cls-5" points="433.16 508.96 405.48 508.96 405.48 284.19 429.54 284.19 433.16 508.96"/><path class="cls-6" d="M394.05,208.63l-3.67-2,.12,2a5.76,5.76,0,0,0-7.56,6.51,6.83,6.83,0,0,1,.32,2.08c-.07.7-.64,1.42-1.34,1.32.72,2.59,5.51,1.22,6.77,3.59,1.05,2-1.53,4.39-.78,6.51a3.24,3.24,0,0,0,1.39,1.58,4.93,4.93,0,0,0,4.9.36,3.55,3.55,0,0,0,1.65-4.39,18.49,18.49,0,0,1-1.09-1.94c-.43-1.39.56-2.83,1.69-3.77s2.46-1.71,3.14-3a5.11,5.11,0,0,0-.89-5.4A15.13,15.13,0,0,0,394.05,208.63Z"/><path class="cls-6" d="M417.45,213.81l-4-2.27c1.63,2,0,5,.1,7.54l4,4.84A7.67,7.67,0,0,0,417.45,213.81Z"/><path class="cls-6" d="M400.54,227.78c.16-.31.33-.62.51-.92A1,1,0,0,0,400.54,227.78Z"/><path class="cls-6" d="M408.78,209.77c1.64-.82,2.62-3.35,4.54-3.9a26.31,26.31,0,0,0-5.56-4.86l-.09-1a8.22,8.22,0,0,0-1.09.26l-.74-.44.19.64a9.6,9.6,0,0,0-5,4.37,27,27,0,0,0,4.48,4.19,4.11,4.11,0,0,0,2.14,1,2.3,2.3,0,0,0,1-.19l-.08-.88Z"/><path class="cls-6" d="M412.58,222.59l1.62,5.46c1.51-1.19,3.19-3.07,2.26-4.76-.47-.87-1.51-1.28-2.14-2a3.41,3.41,0,0,1-.73-2.17l-2.09-2.53A34.46,34.46,0,0,1,412.58,222.59Z"/><path class="cls-6" d="M408.62,209.84l.15,1.48a4.09,4.09,0,0,0-3.23,7c.86.83,2.23,1.79,1.67,2.85a2.23,2.23,0,0,1-1,.82,13.61,13.61,0,0,0-5.13,4.86,1.46,1.46,0,0,1,.8-.26,3.76,3.76,0,0,1,1.83.68l5.51,3.3a2.68,2.68,0,0,0,2.18.54c.9-.33,1.15-1.46,1.23-2.42a35.62,35.62,0,0,0,0-6.11l-3.8-12.82Z"/><rect class="cls-7" x="342.11" y="314.66" width="16.35" height="27.11" rx="4"/><path class="cls-2" d="M358.25,287.76v-104a6.82,6.82,0,0,0-6.86-6.73h-2.7a6.81,6.81,0,0,0-6.86,6.73V311.23a6.53,6.53,0,0,0,.48,2.42V318h16.42v-30.2Z"/><ellipse class="cls-2" cx="400" cy="168.5" rx="24.93" ry="9.73"/><rect class="cls-7" x="441.55" y="314.66" width="16.35" height="27.11" rx="4"/><path class="cls-2" d="M457.69,287.76v-104a6.81,6.81,0,0,0-6.86-6.73h-2.7a6.81,6.81,0,0,0-6.86,6.73V311.23a6.53,6.53,0,0,0,.48,2.42V318h16.42v-30.2Z"/><rect class="cls-2" x="362.58" y="242.63" width="75" height="83.82"/><polygon class="cls-7" points="420.1 168.23 399.59 187.55 380.54 168.23 389.33 168.23 389.33 159.78 400.32 159.78 411.31 159.78 411.31 168.23 420.1 168.23"/><path class="cls-7" d="M427.23,121.82c0,11.56-3.05,22-8,29.6S407.52,163.68,400,163.68s-14.33-4.69-19.25-12.26-8-18-8-29.6-1.53-22,3.4-29.59S392.48,80,400,80s18.91,4.69,23.83,12.26S427.23,110.27,427.23,121.82Z"/><path class="cls-7" d="M431.19,128.42a11.09,11.09,0,0,1-2.71,7.37,8.52,8.52,0,0,1-13.08,0,11.4,11.4,0,0,1,0-14.73,8.74,8.74,0,0,1,6.54-3.06c2.55,0,7.92,1.17,9.59,3.06S431.19,125.55,431.19,128.42Z"/><path class="cls-7" d="M368.81,128.42a11.09,11.09,0,0,0,2.71,7.37,8.52,8.52,0,0,0,13.08,0,11.4,11.4,0,0,0,0-14.73,8.74,8.74,0,0,0-6.54-3.06c-2.55,0-7.92,1.17-9.59,3.06S368.81,125.55,368.81,128.42Z"/><path class="cls-8" d="M430.1,99.93a100.9,100.9,0,0,1-.05,10.39c-.36,3.83-1.4,7.45-4.11,9.1-4.92-9.65.25-17.6-4.55-21.94s-19.59-6.26-23.72-6.26-16.79,2.14-20,6.65,2.91,12.6-4.29,22.08c-2.71-1.65-3.47-5.4-3.56-9.36s.5-8.15.5-10.66a12.35,12.35,0,0,1,2.35-7.08A21,21,0,0,1,379,87.07a55.81,55.81,0,0,1,9.51-4.73,31.11,31.11,0,0,1,23.28,0,55.81,55.81,0,0,1,9.51,4.73,20.8,20.8,0,0,1,6.41,5.78A12.35,12.35,0,0,1,430.1,99.93Z"/><circle class="cls-5" cx="389.02" cy="125.44" r="2.82"/><circle class="cls-5" cx="410.98" cy="125.44" r="2.82"/><path class="cls-9" d="M384.71,119.25a4.74,4.74,0,0,1,.89-1.28,4.84,4.84,0,0,1,6.83,0,5,5,0,0,1,.9,1.28h1.32a6,6,0,0,0-5.63-3.9,6,6,0,0,0-4.27,1.77,5.8,5.8,0,0,0-1.36,2.13Z"/><path class="cls-9" d="M406.67,119.25a5,5,0,0,1,.9-1.28,4.84,4.84,0,0,1,6.83,0,4.74,4.74,0,0,1,.89,1.28h1.32a5.8,5.8,0,0,0-1.36-2.13,6,6,0,0,0-8.54,0,6.07,6.07,0,0,0-1.36,2.13Z"/><rect class="cls-10" x="393.96" y="143.18" width="12.08" height="2.78" rx="1.15"/><path class="cls-9" d="M410.34,154.92c-5.64,6.15-3.55-4.16-9.72-5.37v-.12a6.42,6.42,0,0,1-1.24,0v.12c-6.17,1.21-4.08,11.52-9.72,5.37-14.7-7.26-17-46.64-17-34.81s3.12,22.55,8.17,30.31c4.82,7.42,11.41,12.12,18.71,12.52v0l.5,0,.5,0v0c7.3-.4,13.89-5.1,18.71-12.52,5.05-7.76,8.17-18.47,8.17-30.31S425,147.66,410.34,154.92Z"/><path class="cls-2" d="M434,107.24c0-4.23-3.8-25-10-27.75S409.38,75,400,75s-17.88,1.72-24,4.49S366,103,366,107.24"/><polygon class="cls-2" points="399.08 303.49 416.38 326.45 429.28 293.83 437.58 247.21 437.58 174.01 416.38 167.97 416.38 167.97 399.08 187.55 399.08 303.49"/><polygon class="cls-2" points="399.08 303.49 383.77 326.45 368.89 293.83 362.58 247.21 362.58 174.01 383.77 167.97 383.77 167.97 399.08 187.55 399.08 303.49"/><path class="cls-5" d="M386,171.23c-4.23,3.4-7.4,9.75-5.14,15.12,1.29,3.07,4.51,4.31,6.21,7a9.31,9.31,0,0,1,.19,9.38c-1.24,2.12-4.75,5.63-2,8,.74.62,1.8-.44,1.06-1.06-1.59-1.35.68-3.93,1.54-5.13a10.5,10.5,0,0,0,1.93-4.62,10.63,10.63,0,0,0-2.9-9.11c-1.41-1.4-3.19-2.43-4.23-4.18a8,8,0,0,1-1-4.9,14.18,14.18,0,0,1,5.39-9.44c.75-.6-.32-1.66-1.06-1.06Z"/><path class="cls-5" d="M409.84,172.83c-1,6.23,4.88,10.27,6.67,15.69C419.29,197,405.56,197.19,406,205a8,8,0,0,0,2,4.38c1.08,1.39,2.74,3,2.43,4.94-.15,1,1.29,1.35,1.45.4.53-3.27-2.3-5.22-3.76-7.78-2.47-4.3,2.65-7.15,5.62-9.17,2.64-1.79,4.89-4.25,4.59-7.65-.25-2.8-1.94-5.25-3.45-7.52-1.8-2.72-4.17-5.88-3.63-9.34.14-.95-1.3-1.35-1.45-.4Z"/><path class="cls-11" d="M401.61,521.94a19.95,19.95,0,1,1,39.89,0"/><path class="cls-11" d="M400.49,521.94a19.94,19.94,0,1,0-39.88,0"/><path class="cls-2" d="M361.58,518.87a19.72,19.72,0,0,0-1,6.13h39.88a19.72,19.72,0,0,0-1-6.13Z"/><path class="cls-2" d="M402.58,518.36a20.07,20.07,0,0,0-1,6.13H441.5a20.07,20.07,0,0,0-1-6.13Z"/></svg>