<svg id="Layer_1" data-name="Layer 1" xmlns="http://www.w3.org/2000/svg" xmlns:xlink="http://www.w3.org/1999/xlink" viewBox="0 0 800 600"><defs><style>.cls-1,.cls-9{fill:none;}.cls-2{fill:#00758f;}.cls-3{fill:#b89b72;}.cls-4{fill:#feffff;}.cls-5{fill:#798ea4;}.cls-16,.cls-6{fill:#fff;}.cls-12,.cls-7{fill:#f9e8d4;}.cls-11,.cls-8{fill:#e8a798;}.cls-9{stroke:#e0d0be;}.cls-11,.cls-12,.cls-16,.cls-9{stroke-miterlimit:10;}.cls-10,.cls-13{fill:#584f49;}.cls-10{opacity:0.6;}.cls-11{stroke:#e8a798;}.cls-12{stroke:#fff;}.cls-14{fill:url(#New_Pattern_Swatch_5);}.cls-15{fill:url(#New_Pattern_Swatch_5-3);}.cls-16{stroke:#e6e7e8;stroke-width:0.25px;}</style><pattern id="New_Pattern_Swatch_5" data-name="New Pattern Swatch 5" width="50" height="50" patternTransform="translate(-101.77 36.58) rotate(-46.59) scale(1.24)" patternUnits="userSpaceOnUse" viewBox="0 0 50 50"><rect class="cls-1" width="50" height="50"/><rect class="cls-2" width="50" height="5.02"/><rect class="cls-3" y="11.13" width="50" height="2.51"/><rect class="cls-4" y="5.16" width="50" height="2.51"/><rect class="cls-5" y="7.4" width="50" height="3.76"/><rect class="cls-3" y="14.67" width="50" height="2.51"/><rect class="cls-5" y="17.26" width="50" height="3.76"/><rect class="cls-5" y="13.53" width="50" height="1.25"/><rect class="cls-2" y="21.02" width="50" height="5.02"/><rect class="cls-4" y="26.18" width="50" height="2.51"/><rect class="cls-3" y="32.45" width="50" height="2.51"/><rect class="cls-4" y="26.47" width="50" height="2.51"/><rect class="cls-5" y="28.71" width="50" height="3.76"/><rect class="cls-3" y="35.98" width="50" height="2.51"/><rect class="cls-5" y="38.57" width="50" height="3.76"/><rect class="cls-5" y="34.84" width="50" height="1.25"/><rect class="cls-2" y="42.33" width="50" height="5.02"/><rect class="cls-4" y="47.49" width="50" height="2.51"/></pattern><pattern id="New_Pattern_Swatch_5-3" data-name="New Pattern Swatch 5" width="50" height="50" patternTransform="matrix(0.87, -0.42, 0.32, 1.16, -3.53, -6.15)" patternUnits="userSpaceOnUse" viewBox="0 0 50 50"><rect class="cls-1" width="50" height="50"/><rect class="cls-2" width="50" height="5.02"/><rect class="cls-3" y="11.13" width="50" height="2.51"/><rect class="cls-4" y="5.16" width="50" height="2.51"/><rect class="cls-5" y="7.4" width="50" height="3.76"/><rect class="cls-3" y="14.67" width="50" height="2.51"/><rect class="cls-5" y="17.26" width="50" height="3.76"/><rect class="cls-5" y="13.53" width="50" height="1.25"/><rect class="cls-2" y="21.02" width="50" height="5.02"/><rect class="cls-4" y="26.18" width="50" height="2.51"/><rect class="cls-3" y="32.45" width="50" height="2.51"/><rect class="cls-4" y="26.47" width="50" height="2.51"/><rect class="cls-5" y="28.71" width="50" height="3.76"/><rect class="cls-3" y="35.98" width="50" height="2.51"/><rect class="cls-5" y="38.57" width="50" height="3.76"/><rect class="cls-5" y="34.84" width="50" height="1.25"/><rect class="cls-2" y="42.33" width="50" height="5.02"/><rect class="cls-4" y="47.49" width="50" height="2.51"/></pattern></defs><title>swimming</title><rect class="cls-6" width="800" height="600"/><rect class="cls-7" x="442.63" y="312.1" width="16.77" height="27.82" rx="4"/><path class="cls-8" d="M459.2,284.51V177.81a7,7,0,0,0-7-6.9h-2.77a7,7,0,0,0-7,6.9V308.59a6.64,6.64,0,0,0,.49,2.48v4.42h16.85v-31Z"/><rect class="cls-7" x="340.59" y="312.1" width="16.77" height="27.82" rx="4"/><path class="cls-8" d="M357.16,284.51V177.81a7,7,0,0,0-7-6.9h-2.77a7,7,0,0,0-7,6.9V308.59a6.64,6.64,0,0,0,.49,2.48v4.42h16.85v-31Z"/><polygon class="cls-8" points="394.37 511.75 365.97 511.75 368.45 281.1 393.13 281.1 394.37 511.75"/><polygon class="cls-8" points="434.03 511.75 405.63 511.75 405.63 281.1 430.31 281.1 434.03 511.75"/><rect class="cls-6" x="367.39" y="240.68" width="65.22" height="65.22"/><polygon class="cls-7" points="420.04 165.94 398.99 195.12 379.45 165.94 388.47 165.94 388.47 153.17 399.74 153.17 411.02 153.17 411.02 165.94 420.04 165.94"/><path class="cls-7" d="M427.94,116.35c0,11.27-3.13,21.48-8.18,28.87s-12,12-19.76,12-14.7-4.57-19.76-12-8.18-17.6-8.18-28.87-1.57-21.49,3.48-28.88,16.74-12,24.46-12,19.4,4.57,24.46,12S427.94,105.07,427.94,116.35Z"/><path class="cls-7" d="M432,122.78a10.5,10.5,0,0,1-2.78,7.19,9,9,0,0,1-13.41,0,10.69,10.69,0,0,1,0-14.38,9.13,9.13,0,0,1,6.7-3c2.62,0,8.13,1.13,9.85,3S432,120,432,122.78Z"/><path class="cls-7" d="M368,122.78a10.5,10.5,0,0,0,2.78,7.19,9,9,0,0,0,13.41,0,10.69,10.69,0,0,0,0-14.38,9.13,9.13,0,0,0-6.7-3c-2.62,0-8.13,1.13-9.85,3S368,120,368,122.78Z"/><circle class="cls-5" cx="388.73" cy="117.94" r="2.89"/><circle class="cls-5" cx="411.27" cy="117.94" r="2.89"/><line class="cls-9" x1="390.16" y1="94.63" x2="409.84" y2="94.63"/><line class="cls-9" x1="392.56" y1="98.91" x2="407.44" y2="98.91"/><path class="cls-10" d="M384.31,111.59a5.09,5.09,0,0,1,.91-1.32,5,5,0,0,1,7,0,4.89,4.89,0,0,1,.92,1.32h1.36a6.27,6.27,0,0,0-1.4-2.19A6.17,6.17,0,0,0,383,111.59Z"/><path class="cls-10" d="M406.85,111.59a4.89,4.89,0,0,1,.92-1.32,5,5,0,0,1,7,0,5.09,5.09,0,0,1,.91,1.32h1.36a6.17,6.17,0,0,0-10.16-2.19,6.27,6.27,0,0,0-1.4,2.19Z"/><rect class="cls-11" x="393.8" y="136.15" width="12.39" height="2.86" rx="1.15"/><path class="cls-10" d="M410.61,148.19c-5.79,6.31-3.64-4.26-10-5.51v-.13a5,5,0,0,1-1.26,0v.13c-6.34,1.25-4.19,11.82-10,5.51-15.09-7.45-17.49-47.86-17.49-35.72s3.2,23.14,8.38,31.1c5,7.61,11.71,12.44,19.2,12.84v0l.52,0,.52,0v0c7.49-.4,14.25-5.23,19.2-12.84,5.18-8,8.38-18.95,8.38-31.1S425.7,140.74,410.61,148.19Z"/><path class="cls-12" d="M400.57,525a20.47,20.47,0,0,1,40.93,0"/><path class="cls-12" d="M399.43,525a20.47,20.47,0,0,0-40.93,0"/><path class="cls-13" d="M428.1,101.23c-.24-5.14-1.11-9.76-3.64-13.65s-6.72-7-11.23-9.2a27.58,27.58,0,0,0-26.46,0c-4.51,2.17-8.7,5.31-11.23,9.2s-3.4,8.51-3.64,13.65.16,10.79.16,16.72.52-8.44,1.93-17.06,4.95-16.44,8.53-17.25a38.07,38.07,0,0,1,7.27-4.7c3-1.6,6.35,1.07,10.21,1.07s7.17-2.67,10.21-1.07a37.76,37.76,0,0,1,7.27,4.7c3.58.81,7.12,8.63,8.53,17.25s1.93,23,1.93,17.06S428.34,106.37,428.1,101.23Z"/><polygon class="cls-6" points="400.57 309.47 378.13 309.47 378.13 165.77 399.46 182.92 400.57 309.47"/><polygon class="cls-6" points="399.79 309.47 422.24 309.47 422.24 165.77 400.9 182.92 399.79 309.47"/><polygon class="cls-6" points="399.69 309.47 422.14 309.47 422.14 165.77 400.81 182.92 399.69 309.47"/><polygon class="cls-14" points="408.4 238.89 400.06 249.12 391.6 238.98 393.71 214.47 397.18 189.9 399.74 189.94 403.42 189.98 406.03 214.41 408.4 238.89"/><polygon class="cls-15" points="403.81 188.44 396.19 188.44 392.56 176.37 407.44 176.37 403.81 188.44"/><polygon class="cls-16" points="399.02 172.01 386.28 158.44 379.04 165.24 396.88 184.24 399.02 172.01"/><polygon class="cls-16" points="400.98 172.01 413.72 158.44 420.96 165.24 403.12 184.24 400.98 172.01"/><polygon class="cls-8" points="431.34 311.3 369.38 311.3 368.14 286.51 430.1 286.51 431.34 311.3"/><polygon class="cls-8" points="394.63 296.95 378.52 328.74 362.41 328.74 362.41 247.43 362.41 172.32 378.57 165.77 394.63 247.43 394.63 296.95"/><polygon class="cls-8" points="405.37 296.95 421.48 328.74 437.59 328.74 437.59 247.43 437.59 172.32 421.43 165.77 405.37 247.43 405.37 296.95"/></svg>