<svg id="Layer_1" data-name="Layer 1" xmlns="http://www.w3.org/2000/svg" viewBox="0 0 800 600"><defs><style>.cls-1{fill:#fff;}.cls-16,.cls-2{fill:#282d3c;}.cls-3{fill:#cd212a;}.cls-4{fill:#f9e8d4;}.cls-5,.cls-8{fill:#584f49;}.cls-10,.cls-11,.cls-12,.cls-14,.cls-15,.cls-6{fill:none;}.cls-6{stroke:#e0d0be;}.cls-10,.cls-11,.cls-12,.cls-14,.cls-15,.cls-16,.cls-6,.cls-9{stroke-miterlimit:10;}.cls-7{fill:#798ea4;}.cls-8{opacity:0.6;}.cls-9{fill:#e8a798;stroke:#e8a798;}.cls-10,.cls-11,.cls-12,.cls-14,.cls-15{stroke:#b89b72;stroke-width:2px;}.cls-11{stroke-dasharray:1.01 1.01 1.01 0;}.cls-12{stroke-dasharray:1.01 1.01 1.01 1.01 1.01 0;}.cls-13{fill:#b89b72;}.cls-14{stroke-dasharray:1 1 1 0;}.cls-15{stroke-dasharray:1 1 1 1 1 0;}.cls-16{stroke:#fff;}</style></defs><title>watchingmovies</title><rect class="cls-1" width="800" height="600"/><polygon class="cls-2" points="433.75 511.8 405.58 511.8 405.58 283.03 430.06 283.03 433.75 511.8"/><polygon class="cls-2" points="394.42 511.8 366.25 511.8 368.71 283.03 393.19 283.03 394.42 511.8"/><polygon class="cls-2" points="429.8 317.24 368.34 317.24 367.11 292.66 428.57 292.66 429.8 317.24"/><path class="cls-1" d="M405.23,200.77h-.58a.55.55,0,0,0-.08-.2.64.64,0,0,0-.62,0,.2.2,0,0,0-.06.15q0,.13.36.21a3.93,3.93,0,0,1,.6.16l.08,0a.55.55,0,0,1,.37.53.66.66,0,0,1-.36.63l-.09,0a1.33,1.33,0,0,1-.54.1,1.41,1.41,0,0,1-.73-.16.73.73,0,0,1-.27-.25.75.75,0,0,1-.08-.37h.6a.29.29,0,0,0,.12.25.69.69,0,0,0,.38.08.45.45,0,0,0,.3-.08.18.18,0,0,0,.07-.15c0-.09-.12-.17-.36-.22a5.13,5.13,0,0,1-.67-.18.57.57,0,0,1-.36-.54.71.71,0,0,1,.19-.5.94.94,0,0,1,.72-.25,1.58,1.58,0,0,1,.63.11l0,0a.63.63,0,0,1,.26.25A.8.8,0,0,1,405.23,200.77Z"/><path class="cls-1" d="M404.92,199.35a0,0,0,0,0,0,0l0,0h-.13v.11h.09l0,0A.05.05,0,0,0,404.92,199.35Zm.05-.06a.14.14,0,0,1,0,.06.09.09,0,0,1,0,.07.11.11,0,0,1-.08,0l0,0,.06.08,0,.07h-.07l0-.06,0-.08h0l0,0h0v.16h-.06v-.37h.22A.05.05,0,0,1,405,199.29Z"/><path class="cls-1" d="M405.14,199.43a.28.28,0,0,0,0-.15.29.29,0,0,0-.11-.11.32.32,0,0,0-.14,0h0a.32.32,0,0,0-.14,0,.29.29,0,0,0-.11.11.28.28,0,0,0,0,.15.23.23,0,0,0,0,.14.27.27,0,0,0,.1.11.28.28,0,0,0,.15,0h0a.28.28,0,0,0,.15,0,.27.27,0,0,0,.1-.11A.23.23,0,0,0,405.14,199.43Zm.06,0a.34.34,0,0,1-.05.17.27.27,0,0,1-.13.13.34.34,0,0,1-.17.05h0a.34.34,0,0,1-.17-.05.27.27,0,0,1-.13-.13.34.34,0,0,1-.05-.17.41.41,0,0,1,.05-.18.33.33,0,0,1,.13-.13.33.33,0,0,1,.17,0h0a.35.35,0,0,1,.17,0,.33.33,0,0,1,.13.13A.41.41,0,0,1,405.2,199.43Z"/><polygon class="cls-1" points="401.78 196.59 403.43 199.34 401.78 199.34 400.79 199.34 399.21 196.72 398.02 194.73 399.21 194.01 399.96 193.56 401.78 196.59"/><path class="cls-1" d="M403,201.25v1.12h-.55v-.12a1.15,1.15,0,0,1-.64.19h0a1.2,1.2,0,0,1,0-2.39h0a1.15,1.15,0,0,1,.64.19v-.13H403Zm-.55.12v-.25a.65.65,0,0,0-.64-.53h0a.66.66,0,0,0-.65.66.65.65,0,0,0,.65.65h0A.65.65,0,0,0,402.43,201.37Z"/><path class="cls-1" d="M400.41,201.25v1.12h-.55v-.12a1.2,1.2,0,0,1-.64.19h0a1.2,1.2,0,0,1,0-2.39h0a1.2,1.2,0,0,1,.64.19v-.9h.55Zm-.55.12v-.25a.66.66,0,0,0-.64-.53h0a.66.66,0,0,0-.65.66.65.65,0,0,0,.65.65h0A.66.66,0,0,0,399.86,201.37Z"/><polygon class="cls-1" points="399.21 198.26 399.86 199.34 399.21 199.34 397.21 199.34 395.74 196.9 395.68 196.79 395.74 196.75 397.62 195.62 399.21 198.26"/><rect class="cls-1" x="397.21" y="200.05" width="0.6" height="2.32"/><rect class="cls-1" x="397.21" y="199.35" width="0.6" height="0.52"/><path class="cls-1" d="M396.94,201.25v1.12h-.55v-.12a1.15,1.15,0,0,1-.64.19h0a1.2,1.2,0,0,1,0-2.39h0a1.15,1.15,0,0,1,.64.19v-.9h.55Zm-.55.12v-.25a.65.65,0,0,0-.64-.53h0a.66.66,0,0,0-.65.66.65.65,0,0,0,.65.65h0A.65.65,0,0,0,396.39,201.37Z"/><polygon class="cls-1" points="395.74 198.44 396.29 199.34 395.74 199.34 393.64 199.34 393.34 198.84 395.29 197.68 395.74 198.44"/><path class="cls-1" d="M394.34,201.25v1.12h-.55v-.12a1.15,1.15,0,0,1-.64.19h0a1.2,1.2,0,0,1,0-2.39h0a1.15,1.15,0,0,1,.64.19v-.13h.55Zm-.55.12v-.25a.65.65,0,0,0-.64-.53h0a.66.66,0,0,0-.64.66.65.65,0,0,0,.64.65h0A.65.65,0,0,0,393.79,201.37Z"/><ellipse class="cls-3" cx="398.45" cy="165.1" rx="25.37" ry="9.9"/><polygon class="cls-4" points="419.89 164.83 399.01 184.49 379.63 164.83 388.58 164.83 388.58 156.22 399.76 156.22 410.94 156.22 410.94 164.83 419.89 164.83"/><rect class="cls-4" x="341.08" y="313.86" width="16.64" height="27.59" rx="4"/><rect class="cls-4" x="442.29" y="313.86" width="16.64" height="27.59" rx="4"/><polygon class="cls-3" points="403.8 168.83 412.21 159.87 417.59 164.91 405.81 177.46 403.8 168.83"/><polygon class="cls-3" points="395.47 168.83 387.06 159.87 381.68 164.91 393.46 177.46 395.47 168.83"/><path class="cls-1" d="M430,175.1l.22,3.49L431,176a.82.82,0,0,1,.27-.43,1,1,0,0,1,1,0,.87.87,0,0,1,.27.44l.75,2.57.21-3.49h-.17a.69.69,0,0,1-.51-.16.86.86,0,0,1,0-1,.88.88,0,0,1,.58-.15h1.44a.85.85,0,0,1,.57.15.66.66,0,0,1,.17.51.69.69,0,0,1-.16.49.65.65,0,0,1-.48.16h-.1l-.58,5.25a.72.72,0,0,1-.12.4c-.05.07-.19.1-.41.1h-.28a.61.61,0,0,1-.37-.09,1.17,1.17,0,0,1-.23-.48l-1.09-3.54-1.05,3.54a1,1,0,0,1-.22.47.55.55,0,0,1-.37.1h-.28a.63.63,0,0,1-.41-.09.78.78,0,0,1-.11-.41l-.59-5.25h-.1a.65.65,0,0,1-.48-.16.69.69,0,0,1-.17-.49.66.66,0,0,1,.17-.51.9.9,0,0,1,.58-.15h1.44a.85.85,0,0,1,.57.15.66.66,0,0,1,.17.51.62.62,0,0,1-.17.49.69.69,0,0,1-.51.16Z"/><path class="cls-4" d="M427.71,117.6c0,11.76-3.1,22.41-8.11,30.12s-12,12.48-19.6,12.48-14.58-4.77-19.6-12.48-8.11-18.36-8.11-30.12-1.56-22.41,3.45-30.12S392.35,75,400,75s19.24,4.77,24.26,12.48S427.71,105.83,427.71,117.6Z"/><path class="cls-4" d="M431.74,124.31a11.23,11.23,0,0,1-2.76,7.5,8.66,8.66,0,0,1-13.3,0,11.57,11.57,0,0,1,0-15,8.89,8.89,0,0,1,6.65-3.1c2.6,0,8.06,1.19,9.76,3.1S431.74,121.39,431.74,124.31Z"/><path class="cls-4" d="M368.26,124.31a11.23,11.23,0,0,0,2.76,7.5,8.66,8.66,0,0,0,13.3,0,11.57,11.57,0,0,0,0-15,8.89,8.89,0,0,0-6.65-3.1c-2.6,0-8.06,1.19-9.76,3.1S368.26,121.39,368.26,124.31Z"/><path class="cls-5" d="M430.64,95.32a101.55,101.55,0,0,1-.05,10.57c-.37,3.9-1.43,7.58-4.19,9.26-5-9.82.26-17.92-4.63-22.33s-19.94-6.37-24.15-6.37-17.08,2.18-20.39,6.77,3,12.82-4.36,22.47c-2.76-1.68-3.54-5.49-3.63-9.53s.52-8.29.52-10.84a12.53,12.53,0,0,1,2.39-7.21,21.42,21.42,0,0,1,6.52-5.89,57.82,57.82,0,0,1,9.68-4.81,31.78,31.78,0,0,1,23.69,0,57.44,57.44,0,0,1,9.68,4.81,21.42,21.42,0,0,1,6.52,5.89A12.54,12.54,0,0,1,430.64,95.32Z"/><line class="cls-6" x1="390.24" y1="88.16" x2="409.76" y2="88.16"/><line class="cls-6" x1="392.77" y1="92.41" x2="407.52" y2="92.41"/><circle class="cls-7" cx="388.82" cy="121.28" r="2.87"/><circle class="cls-7" cx="411.18" cy="121.28" r="2.87"/><path class="cls-8" d="M384.43,115a5.21,5.21,0,0,1,.91-1.31,4.92,4.92,0,0,1,7,0,5.21,5.21,0,0,1,.91,1.31h1.34a6,6,0,0,0-1.38-2.17,6.14,6.14,0,0,0-8.69,0,6,6,0,0,0-1.39,2.17Z"/><path class="cls-8" d="M406.79,115a5.21,5.21,0,0,1,.91-1.31,4.92,4.92,0,0,1,7,0,5.21,5.21,0,0,1,.91,1.31h1.34a6.1,6.1,0,0,0-5.73-4,6.11,6.11,0,0,0-4.35,1.8,6,6,0,0,0-1.38,2.17Z"/><rect class="cls-9" x="393.85" y="139.34" width="12.29" height="2.83" rx="1.15"/><path class="cls-8" d="M410.52,151.28c-5.74,6.26-3.61-4.23-9.89-5.47v-.12q-.33,0-.63,0t-.63,0v.12c-6.28,1.24-4.15,11.73-9.89,5.47-15-7.38-17.35-47.47-17.35-35.42s3.18,23,8.31,30.84c4.91,7.55,11.62,12.33,19.05,12.74v0l.51,0,.51,0v0c7.43-.41,14.14-5.19,19.05-12.74,5.13-7.89,8.31-18.8,8.31-30.84S425.49,143.9,410.52,151.28Z"/><polygon class="cls-3" points="399.07 302.49 416.67 325.86 429.8 292.66 438.25 245.21 438.25 170.71 416.67 164.57 416.67 164.57 399.07 184.49 399.07 302.49"/><polygon class="cls-3" points="399.07 302.49 383.49 325.86 368.34 292.66 361.91 245.21 361.91 170.71 383.49 164.57 383.49 164.57 399.07 184.49 399.07 302.49"/><rect class="cls-3" x="361.91" y="240.55" width="76.33" height="85.31"/><path class="cls-1" d="M390.42,230.89a6.81,6.81,0,0,1,5.31,7,8,8,0,0,1-2.67,6.19,10,10,0,0,1-6.94,2.41,13.06,13.06,0,0,1-5.84-1.26c-1.71-.85-2.56-1.77-2.56-2.78a1.38,1.38,0,0,1,.46-1.07,1.64,1.64,0,0,1,1.14-.42A13.22,13.22,0,0,1,382,242a9.88,9.88,0,0,0,4.28,1.1,6,6,0,0,0,4.18-1.46,5.31,5.31,0,0,0,.5-7.06,5.05,5.05,0,0,0-3.06-1.69q-.58-.1-1.53-.18c-1.21-.07-1.81-.57-1.81-1.51s.59-1.34,1.77-1.49a10.72,10.72,0,0,0,1.14-.15,4.49,4.49,0,0,0,2.72-1.38,3.88,3.88,0,0,0,1-2.72,4.6,4.6,0,0,0-1.27-3.35,4.37,4.37,0,0,0-3.24-1.3A7.34,7.34,0,0,0,383,222a7.64,7.64,0,0,1-2.39,1.12,1.36,1.36,0,0,1-1-.39,1.28,1.28,0,0,1-.4-1c0-.88.8-1.75,2.42-2.63a11.09,11.09,0,0,1,5.35-1.3,8,8,0,0,1,5.61,2,6.53,6.53,0,0,1,2.24,5,6.22,6.22,0,0,1-1.07,3.74A6.92,6.92,0,0,1,390.42,230.89Z"/><path class="cls-1" d="M418.52,232.7a8,8,0,0,1-2.57,2.23,6.52,6.52,0,0,1-3.09.73,7.63,7.63,0,0,1-5.8-2.56,8.89,8.89,0,0,1-2.38-6.3,9.21,9.21,0,0,1,2.3-6.46,7.55,7.55,0,0,1,5.88-2.54,8.17,8.17,0,0,1,6.83,3.4c1.73,2.27,2.59,5.27,2.59,9q0,7.41-3.79,11.82a12.68,12.68,0,0,1-10.14,4.42,7.63,7.63,0,0,1-2.67-.3A1.12,1.12,0,0,1,405,245c0-.93.86-1.41,2.57-1.45a17,17,0,0,0,2.7-.24,8.78,8.78,0,0,0,5.54-3.39A14.59,14.59,0,0,0,418.52,232.7Zm-.45-5.79a6.49,6.49,0,0,0-1.42-4.35,4.5,4.5,0,0,0-3.61-1.67,4.2,4.2,0,0,0-3.4,1.57,6.32,6.32,0,0,0-1.29,4.13,6.53,6.53,0,0,0,1.36,4.29,4.33,4.33,0,0,0,3.5,1.65,4.43,4.43,0,0,0,3.48-1.59A5.92,5.92,0,0,0,418.07,226.91Z"/><path class="cls-10" d="M415.16,159.87l.28.41"/><path class="cls-11" d="M416,161.13c.53.84,1,1.73,1.48,2.65"/><path class="cls-12" d="M417.47,163.78a39.58,39.58,0,0,1,3.89,17.49c0,8.36-2.37,15.92-6.2,21.4s-9.13,8.86-15,8.86-11.15-3.38-15-8.86-6.21-13-6.21-21.4a37.84,37.84,0,0,1,5.93-21"/><path class="cls-10" d="M384.92,160.28c.09-.14.18-.28.28-.41"/><polygon class="cls-13" points="403.59 216.54 397.82 216.54 394.93 221.54 397.82 226.54 403.59 226.54 406.48 221.54 403.59 216.54"/><path class="cls-10" d="M418.25,162.32l.3.4"/><path class="cls-14" d="M419.13,163.53c.57.81,1.1,1.65,1.6,2.52"/><path class="cls-15" d="M420.73,166.05a40.53,40.53,0,0,1,5.08,20,39.13,39.13,0,0,1-7.56,23.75c-4.67,6.08-11.12,9.84-18.25,9.84s-13.58-3.76-18.25-9.84a41.14,41.14,0,0,1-.31-47.09"/><path class="cls-10" d="M381.45,162.72l.3-.4"/><path class="cls-3" d="M458.72,286.49V180.66a6.93,6.93,0,0,0-7-6.84H449a6.93,6.93,0,0,0-7,6.84V310.37a6.5,6.5,0,0,0,.49,2.46v4.39h16.72V286.49Z"/><path class="cls-3" d="M357.51,286.49V180.66a6.93,6.93,0,0,0-7-6.84h-2.76a6.93,6.93,0,0,0-7,6.84V310.37a6.7,6.7,0,0,0,.49,2.46v4.39H358V286.49Z"/><path class="cls-1" d="M345,185.49a4.55,4.55,0,0,0-3.79-1.89,3.27,3.27,0,0,0-.45,0v1.73a2.35,2.35,0,0,1,.54-.06,2.5,2.5,0,0,1,2,.93,3.6,3.6,0,0,1,.79,2.42,3.31,3.31,0,0,1-.77,2.24,2.45,2.45,0,0,1-1.93.88,2.61,2.61,0,0,1-.64-.08v1.78c.15,0,.29,0,.45,0a3.66,3.66,0,0,0,1.71-.41,4.42,4.42,0,0,0,1.43-1.23,8.28,8.28,0,0,1-1.49,4,5,5,0,0,1-2.1,1.6v1.76a6.74,6.74,0,0,0,3.57-2.2,9.73,9.73,0,0,0,2.11-6.57A8.06,8.06,0,0,0,345,185.49Z"/><rect class="cls-1" x="340.79" y="239.39" width="16.72" height="5.28"/><rect class="cls-1" x="340.79" y="249.55" width="16.72" height="5.28"/><rect class="cls-1" x="442.25" y="239.39" width="16.72" height="5.28"/><rect class="cls-1" x="442.25" y="249.55" width="16.72" height="5.28"/><path class="cls-16" d="M400.57,525a20.3,20.3,0,1,1,40.59,0"/><path class="cls-16" d="M399.43,525a20.3,20.3,0,1,0-40.59,0"/></svg>